<svg width="610" height="490" version="1.1" viewBox="0 0 610 490" xmlns="http://www.w3.org/2000/svg" xmlns:xlink="http://www.w3.org/1999/xlink">
 <defs>
  <clipPath id="clipPath10">
   <path transform="translate(-278.79 -133.02)" d="m0 426.65h500v-426.65h-500z"/>
  </clipPath>
  <clipPath id="clipPath12">
   <path transform="translate(-264.81 -182.17)" d="m0 426.65h500v-426.65h-500z"/>
  </clipPath>
  <clipPath id="clipPath14">
   <path transform="translate(-224.54 -161.47)" d="m0 426.65h500v-426.65h-500z"/>
  </clipPath>
  <clipPath id="clipPath16">
   <path transform="translate(-259.41 -185.42)" d="m0 426.65h500v-426.65h-500z"/>
  </clipPath>
  <clipPath id="clipPath18">
   <path transform="translate(-202.65 -131.98)" d="m0 426.65h500v-426.65h-500z"/>
  </clipPath>
  <clipPath id="clipPath20">
   <path transform="translate(-217.87 -401.63)" d="m0 426.65h500v-426.65h-500z"/>
  </clipPath>
  <clipPath id="clipPath22">
   <path transform="translate(-222.4 -396.89)" d="m0 426.65h500v-426.65h-500z"/>
  </clipPath>
  <clipPath id="clipPath24">
   <path transform="translate(-216 -379.21)" d="m0 426.65h500v-426.65h-500z"/>
  </clipPath>
  <linearGradient id="linearGradient27" x1="497.51" x2="247.01" y1="422.16" y2="205.09" gradientTransform="matrix(1.3333 0 0 -1.3333 -184 568.86)" gradientUnits="userSpaceOnUse">
   <stop stop-color="#927800" offset="0"/>
   <stop stop-color="#927800" offset="1"/>
  </linearGradient>
 </defs>
 <g transform="translate(-10,-8)">
  <g>
   <path d="m12.829 41.64c4.46 12.361 12.72 29.925 25.817 38.887-2.872 0-15.079-3.4227-25.209-10.473 1.324 12.552 4.2027 26.22 9.6307 40.211 8.2973 5.816 23.915 16.073 37.639 21.169-8.424 0-20.364-2.508-30.256-5.0347 2.0827 3.9133 4.3867 7.8253 6.9373 11.72 31.212 47.687 74.359 73.868 95.883 92.503 0.336-1.904 0.676-3.828 1.024-5.792 2.1707-12.229 4.9507-23.616 8.3747-34.283-4.068-12.115-8.908-22.932-14.461-32.737-1.7333 3.6627-3.844 7.5733-5.8453 9.8267 1.3107-7.344 1.4013-13.328 1.1267-17.657-15.432-24.131-35.503-42.096-58.951-59.373-42.989-31.677-46.383-81.471-46.383-81.471s-4.1213 12.851-5.3267 32.505" fill="#927800"/>
   <path d="m151.78 267.05c2.3613 10.788 3.2613 18.612 3.2613 18.612l9.0507 16.5s-1e-3 -4.244-8.056-50.789c-1.748 5.4547-3.1493 10.829-4.256 15.677" fill="#927800"/>
   <path d="m230.04 90.605c-23.448 17.277-43.52 35.243-58.951 59.373-0.27467 4.3293-0.184 10.313 1.1267 17.657-2.0013-2.2533-4.112-6.164-5.8453-9.8267-10.513 18.563-18.499 40.695-23.441 68.551-12.444 70.14-12.444 75.797-12.444 75.797l9.0507-16.5s2.2627-19.703 9.0507-39.697c6.788-19.996 67.877-45.62 108.6-107.84 2.5507-3.8947 4.856-7.8067 6.9387-11.72-9.892 2.5267-21.832 5.0347-30.256 5.0347 13.723-5.096 29.341-15.353 37.639-21.169 5.428-13.991 8.3067-27.659 9.6293-40.211-10.129 7.0507-22.336 10.473-25.208 10.473 13.097-8.9613 21.357-26.525 25.817-38.887-1.2067-19.655-5.3267-32.505-5.3267-32.505s-3.3933 49.793-46.383 81.471" fill="url(#linearGradient27)"/>
  </g>
  <g stroke-width="1.3333">
   <text x="252.53889" y="216.77826" font-size="160px" xml:space="preserve"><tspan x="252.53889" y="216.77826"><tspan x="252.53889" y="216.77826" fill="#ffffff" font-family="Italianno" font-size="160px" stroke-width="1.3333">Natalia</tspan></tspan><tspan x="252.53889" y="440.3511"/></text>
   <text x="208.37921" y="336.29492" font-size="160px" xml:space="preserve"><tspan x="208.37921" y="336.29492"><tspan x="208.37921" y="336.29492" fill="#ffffff" font-family="Italianno" font-size="160px" stroke-width="1.3333">G.G.G</tspan></tspan><tspan x="208.37921" y="559.8678"/></text>
   <text x="65.53334" y="491.45593" font-size="66.667px" xml:space="preserve"><tspan x="65.53334" y="491.45593" fill="#ffffff" font-family="Rosalie" font-size="66.667px" font-style="italic" stroke-width="1.3333"><tspan fill="#ffffff" font-family="italianno" font-size="66.667px" font-style="normal">La chica de las letras indelebles</tspan>.</tspan></text>
  </g>
  <g>
   <path transform="matrix(1.3333 0 0 -1.3333 187.72 391.5)" d="m0 0h-61.721c-1.657 0-3 1.343-3 3v38.565c0 1.657 1.343 3 3 3h61.721c1.657 0 3-1.343 3-3v-38.565c0-1.657-1.343-3-3-3" clip-path="url(#clipPath10)"/>
   <path transform="matrix(1.3333 0 0 -1.3333 169.08 325.98)" d="m0 0h-33.759c-1.657 0-3 1.343-3 3v9.729c0 1.657 1.343 3 3 3h33.759c1.657 0 3-1.343 3-3v-9.729c0-1.657-1.343-3-3-3" clip-path="url(#clipPath12)"/>
   <path transform="matrix(1.3333 0 0 -1.3333 115.39 353.57)" d="m0 0c0.682 2.207 1.666 3.625 1.957 4.03 0.79 1.097 2.848 3.958 5.019 3.594 0.642-0.108 1.388-0.514 1.917-1.141 0.144-0.171 0.668-0.791 0.733-1.598 0.078-0.972-0.551-1.703-1.63-2.919-2.945-3.318-3.153-3.408-3.665-4.248-0.517-0.847-1.236-2.054-1.373-3.733-0.093-1.136-0.179-2.194 0.339-3.329 0.256-0.561 0.671-1.168 0.562-1.999-0.026-0.202-0.091-0.649-0.439-0.919-0.444-0.345-1.074-0.189-1.252-0.145-1.718 0.425-2.478 4.46-2.597 5.133-0.625 3.534 0.136 6.325 0.429 7.274" clip-path="url(#clipPath14)" fill="#fff"/>
   <path transform="matrix(1.3333 0 0 -1.3333 161.87 321.64)" d="m0 0c-2.526 1.92-6.719 3.18-11.474 3.18-4.537 0-8.557-1.15-11.11-2.922v-1e-3c0.18-0.112 0.347-0.237 0.505-0.37 0.016-0.014 0.033-0.028 0.049-0.042 0.316-0.275 0.587-0.591 0.813-0.937 9e-3 -0.015 0.018-0.029 0.027-0.043 0.107-0.169 0.205-0.343 0.291-0.524l9e-3 -0.018c0.178-0.379 0.309-0.781 0.395-1.195 3e-3 -0.017 7e-3 -0.034 0.01-0.051 0.083-0.416 0.118-0.841 0.107-1.267v-0.016c-0.051-1.74-0.883-3.449-2.494-4.291 2.533-1.889 6.689-3.125 11.398-3.125 4.66 0 8.776 1.212 11.316 3.067-2.855 1.898-2.802 6.768 0.158 8.555" clip-path="url(#clipPath16)"/>
  </g>
 </g>
 <g transform="translate(-10,-8)">
  <path transform="matrix(1.2126 0 0 -1.5299 90.401 393.05)" d="m0 0c2.251 2.155 1.951 5.784 0.392 8.207-1.516 2.469-4.372 3.599-7.175 4.051-14.986 2.057-34.679-4.693-28.139-23.339 5.536-14.251 25.631-19.718 39.595-19.849 13.045-0.29 24.525 6.118 36.241 11.218 48.096 20.918 106.81 13.231 147.52-19.852-41.104 31.559-99.195 38.672-146.46 17.405-5.867-2.599-11.66-5.573-17.827-7.9-12.34-4.964-26.474-4.827-39.028-0.639-6.345 2.057-12.561 5.076-17.336 9.903-9.056 8.718-10.319 24.676 1.406 31.85 7.24 4.697 21.955 7.034 29.597 2.326 3.107-1.894 4.999-5.824 4.258-9.422-0.295-1.759-1.418-3.389-2.931-4.122z" clip-path="url(#clipPath18)"/>
 </g>
 <g transform="translate(-10,-8)">
  <path transform="matrix(1.3333 0 0 -1.3333 106.5 33.351)" d="m0 0c1.181 0.752 2.34 1.482 4.015 2.102 0.253 0.094 1.336 0.488 3.088 0.825 1.616 0.312 4.387 0.822 7.946 0.334 2.93-0.401 5.026-1.291 5.558-1.524 2.48-1.086 4.127-2.415 4.966-3.102 0.776-0.635 1.463-1.197 2.206-2.076 1.083-1.282 1.147-1.366 1.147-1.366 0.659-0.86 0.787-1.177 1.09-1.188 0.453-0.017 0.711 0.622 1.402 1.556 0.392 0.529 0.874 1.01 1.838 1.972 1.246 1.244 2.415 1.997 3.182 2.492 3.338 2.152 6.726 2.91 7.243 3.021 1.069 0.229 5.323 1.057 10.534-0.368 2.463-0.673 4.233-1.601 4.993-2.026 1.421-0.793 4.683-2.824 7.324-6.651 1.202-1.742 1.867-3.265 2.268-4.196 1.105-2.564 1.553-4.71 1.73-5.683 0.463-2.545 0.419-4.501 0.376-6.034-0.099-3.502-0.704-6.147-1.102-7.843-0.088-0.376-0.527-2.223-1.336-4.599-0.122-0.358-0.675-1.969-1.613-4.168-1.331-3.119-1.622-3.166-2.43-5.415-0.126-0.352-0.644-1.871-1.138-3.864-0.173-0.699-0.332-1.469-0.457-2.303-0.112-0.745-0.183-1.447-0.224-2.098 0.019-1.022 0.061-2.087 0.134-3.192 0.069-1.053 0.161-2.067 0.269-3.039 3e-3 -0.884 6e-3 -1.769 9e-3 -2.653-0.056-1.113-0.877-1.997-1.865-2.107-0.779-0.087-1.567 0.319-2.017 1.031-0.178 0.474-0.383 1.203-0.331 2.08 0.054 0.921 0.342 1.168 0.654 2.635 0.214 1.004 0.243 1.661 0.269 2.304 0.061 1.539-0.162 1.906-0.367 2.107-0.395 0.387-0.961 0.395-1.067 0.394-0.966-3e-3 -1.438-0.867-3.003-2.42-7e-3 -6e-3 -0.761-0.68-2.268-2.026-1.106-0.987-2.007-1.77-2.573-2.259-2.388-1.835-4.995-3.71-7.826-5.576-2.274-1.498-4.493-2.86-6.634-4.097-0.727-0.498-1.713-1.284-2.653-2.447-0.464-0.573-2.289-2.935-2.717-6.419-0.032-0.264-0.461-4.001 0.691-6.723 0.074-0.175 0.498-1.158 0.587-2.49 0.046-0.689 0.08-1.319-0.265-1.947-0.53-0.968-1.593-1.268-1.909-1.345-1.025 0.072-1.601 0.481-1.883 0.717-1.098 0.918-1.463 2.617-0.905 4.276 0.181 0.587 0.475 1.496 0.887 2.6 0.563 1.507 0.732 1.736 0.915 2.546 0.265 1.176 0.232 2.134 0.201 3.066-0.028 0.794-0.051 1.477-0.282 2.366-0.245 0.942-0.608 1.671-0.887 2.152-0.264 0.507-0.652 1.135-1.22 1.775-0.758 0.855-1.549 1.406-2.133 1.748-1.087 0.618-1.941 1.119-2.474 1.434-1.518 0.898-1.89 1.151-2.609 1.255-0.334 0.049-1.405 0.204-2.358-0.412-0.273-0.177-0.69-0.516-1.228-1.605-0.376-0.762-0.879-2.026-1.04-3.77-3e-3 -0.886-6e-3 -1.771-9e-3 -2.657 0.097-1.664-0.729-2.83-1.524-2.896-0.631-0.052-1.259 0.588-1.542 1.103-0.305 0.555-0.276 1.086-0.233 1.873 0.026 0.461 0.126 0.935 0.328 1.883 0.179 0.84 0.23 0.947 0.345 1.56 0.129 0.691 0.186 1.22 0.224 1.568 0.071 0.67 0.177 1.658 0.134 2.833-0.031 0.851-0.149 2.046-0.538 3.461-0.455 1.416-1.069 2.408-1.533 3.038-0.492 0.671-0.992 1.172-1.986 2.171-0.6 0.604-1.002 0.96-1.492 1.406-1.303 1.187-1.646 1.394-2.053 1.542-0.369 0.135-1.099 0.401-1.918 0.108-0.705-0.252-1.096-0.783-1.246-1.013-0.195-0.301-0.448-0.758-0.619-1.354-0.123-0.429-0.167-0.804-0.201-1.755-0.042-1.179-0.064-1.769-0.024-2.267 0.055-0.704 0.204-1.702 0.62-2.871 0.08-0.317 0.17-0.804 0.134-1.399-0.028-0.472-0.051-0.865-0.305-1.273-0.071-0.115-0.469-0.759-1.183-0.861-1.069-0.151-1.792 1-1.873 1.13-0.243 0.386-0.326 0.759-0.359 0.986-7e-3 0.319-4e-3 0.808 0.063 1.399 0.082 0.733 0.212 1.179 0.387 1.923 0.214 0.911 0.332 1.579 0.491 2.46 0.171 0.949 0.317 1.87 0.44 2.761 0.187 1.098 0.348 2.62 0.233 4.429-0.053 0.829-0.139 2.054-0.583 3.57-0.306 1.044-0.883 2.572-2.026 4.22-1.4 2.388-3.386 6.044-5.007 10.217-1.174 3.022-1.712 5.013-1.906 6.252-0.171 1.085-0.341 2.171-0.511 3.256-0.316 2.018-0.257 3.806-0.216 5.231 0.025 0.827 0.06 1.937 0.254 3.386 0.144 1.068 0.399 2.895 1.186 5.151 0.915 2.623 2.069 4.448 2.479 5.072 1.402 2.136 2.821 3.496 3.264 3.909 1.353 1.261 2.525 2.008 3.597 2.691" clip-path="url(#clipPath20)" stroke="#212121 icc-color(Adobe-RGB-1998, 0.14898682, 0.14898682, 0.14898682)" stroke-miterlimit="10" stroke-width=".5"/>
  <path transform="matrix(1.3333 0 0 -1.3333 112.53 39.673)" d="m0 0c2.388 1.691 4.471 2.356 5.076 2.538 1.639 0.493 5.914 1.779 7.814-0.262 0.562-0.603 0.999-1.587 1.047-2.625 0.013-0.283 0.06-1.311-0.497-2.172-0.672-1.036-1.869-1.285-3.89-1.674-5.519-1.062-5.797-0.991-6.96-1.439-1.173-0.452-2.827-1.11-4.26-2.691-0.97-1.07-1.873-2.066-2.228-3.606-0.176-0.761-0.227-1.691-0.977-2.442-0.183-0.182-0.593-0.581-1.152-0.584-0.712-4e-3 -1.224 0.638-1.369 0.82-1.398 1.753 0.953 6.393 1.352 7.16 2.099 4.033 5.017 6.249 6.044 6.977" clip-path="url(#clipPath22)" fill="#fff"/>
  <path transform="matrix(1.3333 0 0 -1.3333 104.01 63.252)" d="m0 0c0.952 0.061 1.971-1.542 1.935-2.982-0.032-1.253-0.871-2.703-1.776-2.696-0.949 8e-3 -1.763 1.614-1.745 2.95 0.016 1.194 0.703 2.672 1.586 2.728" clip-path="url(#clipPath24)" fill="#fff"/>
 </g>
</svg>
