<?xml version="1.0" standalone="no"?><svg xmlns="http://www.w3.org/2000/svg" viewBox="0 0 1440 320"><path fill="#0099ff" fill-opacity="1" d="M0,192L20,208C40,224,80,256,120,272C160,288,200,288,240,272C280,256,320,224,360,202.7C400,181,440,171,480,181.3C520,192,560,224,600,213.3C640,203,680,149,720,144C760,139,800,181,840,218.7C880,256,920,288,960,282.7C1000,277,1040,235,1080,202.7C1120,171,1160,149,1200,165.3C1240,181,1280,235,1320,240C1360,245,1400,203,1420,181.3L1440,160L1440,320L1420,320C1400,320,1360,320,1320,320C1280,320,1240,320,1200,320C1160,320,1120,320,1080,320C1040,320,1000,320,960,320C920,320,880,320,840,320C800,320,760,320,720,320C680,320,640,320,600,320C560,320,520,320,480,320C440,320,400,320,360,320C320,320,280,320,240,320C200,320,160,320,120,320C80,320,40,320,20,320L0,320Z"></path></svg>